<svg width="210" height="70" viewBox="0 0 210 70" fill="none" xmlns="http://www.w3.org/2000/svg">
<path d="M29.9326 10.2793C20.8905 10.2793 15.9017 26.1527 11.2247 32.4185C6.54775 38.6843 4.32762 37.983 0 32.4185C0 32.4185 0.972896 42.5154 5.61236 43.1718C9.88974 43.7769 12.1601 40.6771 14.9663 37.1803C17.7725 33.6836 24.3202 19.7498 29.9326 20.7163C35.5449 21.6829 48.9523 47.164 60.4888 45.9586C72.9607 45.9586 71.2132 10.3299 78.8848 8.63823C86.0562 7.05686 92.1165 51.0222 107.57 44.06C110.376 42.7958 110.688 41.5256 110.688 41.5256H109.129C95.0983 41.5256 96.3525 -2.98 75.7669 0.158522C63.6068 2.01248 66.7247 36.3998 58.9298 37.7951C51.1348 39.1905 38.9747 10.2793 29.9326 10.2793Z" fill="#8B1874"/>
<path d="M116.848 23.74C115.888 23.74 115.096 23.452 114.472 22.876C113.872 22.276 113.572 21.532 113.572 20.644C113.572 19.684 113.932 18.856 114.652 18.16C115.372 17.464 116.248 17.116 117.28 17.116C118.24 17.116 119.02 17.416 119.62 18.016C120.244 18.616 120.556 19.36 120.556 20.248C120.556 21.208 120.196 22.036 119.476 22.732C118.756 23.404 117.88 23.74 116.848 23.74ZM114.328 43.144C113.392 43.144 112.552 42.82 111.808 42.172C111.064 41.5 110.692 40.432 110.692 38.968C110.692 38.128 110.8 37.348 111.016 36.628C111.256 35.884 111.52 35.164 111.808 34.468C112.12 33.772 112.384 33.1 112.6 32.452C112.84 31.78 112.96 31.12 112.96 30.472C112.96 29.896 112.864 29.488 112.672 29.248C112.48 28.984 112.252 28.852 111.988 28.852C111.58 28.852 111.184 29.116 110.8 29.644L110.548 29.5C110.644 28.54 110.944 27.724 111.448 27.052C111.976 26.356 112.612 25.816 113.356 25.432C114.124 25.048 114.88 24.856 115.624 24.856C116.536 24.856 117.328 25.156 118 25.756C118.672 26.332 119.008 27.28 119.008 28.6C119.008 29.392 118.888 30.232 118.648 31.12C118.432 31.984 118.168 32.848 117.856 33.712C117.568 34.576 117.304 35.38 117.064 36.124C116.848 36.868 116.74 37.504 116.74 38.032C116.74 38.488 116.824 38.812 116.992 39.004C117.184 39.196 117.388 39.292 117.604 39.292C117.82 39.292 118.024 39.232 118.216 39.112C118.432 38.968 118.588 38.812 118.684 38.644L118.936 38.716C118.936 39.604 118.696 40.384 118.216 41.056C117.76 41.704 117.184 42.22 116.488 42.604C115.792 42.964 115.072 43.144 114.328 43.144ZM129.459 43.252C127.659 43.252 126.171 42.892 124.995 42.172C123.819 41.452 122.943 40.504 122.367 39.328C121.815 38.128 121.539 36.856 121.539 35.512C121.539 34.24 121.767 32.968 122.223 31.696C122.703 30.424 123.387 29.272 124.275 28.24C125.187 27.184 126.291 26.344 127.587 25.72C128.883 25.072 130.371 24.748 132.051 24.748C133.851 24.748 135.327 25.12 136.479 25.864C137.655 26.584 138.519 27.544 139.071 28.744C139.647 29.944 139.935 31.228 139.935 32.596C139.935 33.844 139.707 35.104 139.251 36.376C138.795 37.624 138.111 38.776 137.199 39.832C136.311 40.864 135.219 41.692 133.923 42.316C132.627 42.94 131.139 43.252 129.459 43.252ZM130.431 40.192C131.079 40.192 131.619 39.856 132.051 39.184C132.483 38.512 132.807 37.66 133.023 36.628C133.239 35.572 133.347 34.504 133.347 33.424C133.347 32.464 133.251 31.564 133.059 30.724C132.891 29.86 132.627 29.164 132.267 28.636C131.907 28.084 131.439 27.808 130.863 27.808C130.239 27.808 129.699 28.144 129.243 28.816C128.811 29.488 128.487 30.34 128.271 31.372C128.055 32.404 127.947 33.472 127.947 34.576C127.947 35.536 128.031 36.448 128.199 37.312C128.391 38.152 128.667 38.848 129.027 39.4C129.387 39.928 129.855 40.192 130.431 40.192ZM150.68 50.2C149.504 50.2 148.532 49.852 147.764 49.156C146.996 48.46 146.612 47.476 146.612 46.204C146.612 44.836 147.092 43.228 148.052 41.38C147.884 41.428 147.716 41.464 147.548 41.488C147.38 41.512 147.212 41.524 147.044 41.524C145.652 41.524 144.476 40.924 143.516 39.724C142.58 38.5 142.112 36.808 142.112 34.648C142.112 32.704 142.484 30.988 143.228 29.5C143.996 28.012 144.968 26.848 146.144 26.008C147.32 25.168 148.544 24.748 149.816 24.748C150.704 24.748 151.508 24.976 152.228 25.432C152.948 25.864 153.536 26.572 153.992 27.556C154.016 27.316 154.028 27.1 154.028 26.908C154.028 26.716 154.028 26.536 154.028 26.368C154.028 25.96 154.34 25.624 154.964 25.36C155.588 25.096 156.284 24.964 157.052 24.964C157.748 24.964 158.396 25.096 158.996 25.36C159.596 25.624 159.992 26.068 160.184 26.692L160.256 26.908C160.04 27.1 159.848 27.724 159.68 28.78C159.536 29.836 159.356 31.3 159.14 33.172C158.996 34.348 158.816 35.692 158.6 37.204C158.384 38.692 158.084 40.204 157.7 41.74C157.34 43.252 156.86 44.644 156.26 45.916C155.66 47.212 154.904 48.244 153.992 49.012C153.08 49.804 151.976 50.2 150.68 50.2ZM149.492 37.384C150.188 37.384 150.956 36.82 151.796 35.692C152.66 34.54 153.344 32.896 153.848 30.76C153.416 29.824 152.972 29.164 152.516 28.78C152.084 28.372 151.64 28.168 151.184 28.168C150.584 28.168 150.02 28.468 149.492 29.068C148.964 29.668 148.532 30.436 148.196 31.372C147.884 32.284 147.728 33.232 147.728 34.216C147.728 35.224 147.896 36.004 148.232 36.556C148.568 37.108 148.988 37.384 149.492 37.384ZM149.06 46.06C149.876 46.06 150.704 45.256 151.544 43.648C152.408 42.064 153.008 39.82 153.344 36.916C151.52 39.388 150.248 41.296 149.528 42.64C148.832 43.96 148.484 44.896 148.484 45.448C148.484 45.856 148.676 46.06 149.06 46.06ZM166.183 43.144C165.319 43.144 164.551 42.796 163.879 42.1C163.207 41.38 162.871 40.372 162.871 39.076C162.871 38.452 162.943 37.744 163.087 36.952C163.231 36.16 163.399 35.356 163.591 34.54C163.783 33.7 163.951 32.92 164.095 32.2C164.239 31.456 164.311 30.844 164.311 30.364C164.311 29.86 164.215 29.464 164.023 29.176C163.855 28.864 163.627 28.708 163.339 28.708C162.883 28.708 162.415 29.02 161.935 29.644L161.719 29.5C161.695 29.116 161.779 28.66 161.971 28.132C162.163 27.604 162.463 27.1 162.871 26.62C163.279 26.116 163.795 25.696 164.419 25.36C165.067 25.024 165.823 24.856 166.687 24.856C167.959 24.856 168.883 25.228 169.459 25.972C170.035 26.692 170.323 27.568 170.323 28.6C170.323 28.768 170.311 28.948 170.287 29.14C170.287 29.308 170.275 29.476 170.251 29.644C171.115 28.084 172.015 26.896 172.951 26.08C173.911 25.24 174.799 24.82 175.615 24.82C176.383 24.82 176.947 25.12 177.307 25.72C177.667 26.32 177.847 27.04 177.847 27.88C177.847 28.648 177.691 29.428 177.379 30.22C177.091 31.012 176.647 31.672 176.047 32.2C175.471 32.704 174.763 32.944 173.923 32.92L173.779 32.848C173.755 32.224 173.551 31.732 173.167 31.372C172.783 31.012 172.351 30.832 171.871 30.832C171.223 30.832 170.611 31.156 170.035 31.804C169.483 32.452 169.207 33.388 169.207 34.612C169.207 35.356 169.291 36.16 169.459 37.024C169.627 37.888 169.711 38.62 169.711 39.22C169.711 39.94 169.543 40.6 169.207 41.2C168.871 41.8 168.439 42.28 167.911 42.64C167.383 42.976 166.807 43.144 166.183 43.144ZM191.563 43.18C190.723 43.18 189.991 42.904 189.367 42.352C188.743 41.8 188.431 40.9 188.431 39.652C188.431 39.532 188.431 39.412 188.431 39.292C188.431 39.172 188.443 39.052 188.467 38.932C187.747 40.372 186.931 41.44 186.019 42.136C185.131 42.808 184.231 43.144 183.319 43.144C182.479 43.144 181.687 42.856 180.943 42.28C180.199 41.68 179.599 40.804 179.143 39.652C178.687 38.5 178.459 37.108 178.459 35.476C178.459 33.796 178.687 32.296 179.143 30.976C179.623 29.656 180.247 28.54 181.015 27.628C181.783 26.716 182.623 26.032 183.535 25.576C184.447 25.096 185.335 24.856 186.199 24.856C187.159 24.856 188.023 25.156 188.791 25.756C189.559 26.332 190.087 27.256 190.375 28.528C190.447 28.12 190.495 27.748 190.519 27.412C190.567 27.076 190.591 26.848 190.591 26.728C190.615 26.08 190.939 25.6 191.563 25.288C192.211 24.976 192.919 24.82 193.687 24.82C194.359 24.82 194.995 24.952 195.595 25.216C196.195 25.48 196.603 25.924 196.819 26.548L196.891 26.764C196.603 27.412 196.315 28.192 196.027 29.104C195.739 30.016 195.475 30.976 195.235 31.984C194.995 32.968 194.803 33.94 194.659 34.9C194.515 35.836 194.443 36.664 194.443 37.384C194.443 38.176 194.527 38.728 194.695 39.04C194.863 39.328 195.067 39.472 195.307 39.472C195.715 39.472 196.087 39.184 196.423 38.608L196.711 38.752C196.711 39.568 196.447 40.312 195.919 40.984C195.391 41.656 194.731 42.196 193.939 42.604C193.147 42.988 192.355 43.18 191.563 43.18ZM185.695 38.608C186.319 38.608 187.003 38.056 187.747 36.952C188.515 35.824 189.175 34.216 189.727 32.128C189.775 31.912 189.823 31.708 189.871 31.516C189.919 31.3 189.955 31.096 189.979 30.904C189.595 30.016 189.187 29.392 188.755 29.032C188.347 28.648 187.939 28.456 187.531 28.456C186.931 28.456 186.367 28.78 185.839 29.428C185.335 30.052 184.915 30.844 184.579 31.804C184.267 32.764 184.111 33.724 184.111 34.684C184.111 36.004 184.255 36.988 184.543 37.636C184.855 38.284 185.239 38.608 185.695 38.608Z" fill="#8B1874"/>
<path d="M129.238 65.126C128.77 65.126 128.296 65.072 127.816 64.964C127.336 64.856 126.892 64.688 126.484 64.46C126.088 64.22 125.764 63.914 125.512 63.542C125.272 63.158 125.152 62.702 125.152 62.174C125.152 62.114 125.152 62.06 125.152 62.012C125.152 61.952 125.158 61.88 125.17 61.796C125.206 61.472 125.284 61.07 125.404 60.59C125.536 60.11 125.686 59.6 125.854 59.06C126.022 58.52 126.184 57.986 126.34 57.458C126.508 56.93 126.646 56.45 126.754 56.018C126.862 55.574 126.916 55.22 126.916 54.956C126.916 54.668 126.838 54.524 126.682 54.524C126.526 54.524 126.292 54.674 125.98 54.974C125.668 55.274 125.308 55.772 124.9 56.468L124.792 56.432C124.792 55.46 125.008 54.632 125.44 53.948C125.884 53.252 126.508 52.724 127.312 52.364C128.128 51.992 129.088 51.806 130.192 51.806C131.224 51.806 132.112 51.962 132.856 52.274C133.6 52.574 134.206 52.988 134.674 53.516C135.154 54.044 135.508 54.65 135.736 55.334C135.964 56.006 136.078 56.714 136.078 57.458C136.078 58.358 135.916 59.264 135.592 60.176C135.28 61.076 134.824 61.904 134.224 62.66C133.636 63.404 132.916 64.004 132.064 64.46C131.224 64.904 130.282 65.126 129.238 65.126ZM129.544 62.75C130.024 62.75 130.456 62.612 130.84 62.336C131.236 62.048 131.578 61.67 131.866 61.202C132.154 60.734 132.376 60.218 132.532 59.654C132.688 59.078 132.766 58.502 132.766 57.926C132.766 57.242 132.646 56.6 132.406 56C132.178 55.4 131.806 54.914 131.29 54.542C130.774 54.17 130.102 53.984 129.274 53.984C129.334 54.212 129.376 54.446 129.4 54.686C129.436 54.926 129.454 55.172 129.454 55.424C129.454 55.976 129.4 56.54 129.292 57.116C129.196 57.692 129.082 58.25 128.95 58.79C128.83 59.33 128.716 59.834 128.608 60.302C128.512 60.77 128.464 61.184 128.464 61.544C128.464 61.916 128.542 62.21 128.698 62.426C128.854 62.642 129.136 62.75 129.544 62.75ZM140.644 65.126C139.768 65.126 139.042 64.952 138.466 64.604C137.89 64.244 137.458 63.776 137.17 63.2C136.882 62.612 136.738 61.982 136.738 61.31C136.738 60.674 136.858 60.038 137.098 59.402C137.35 58.754 137.71 58.166 138.178 57.638C138.658 57.11 139.234 56.684 139.906 56.36C140.59 56.036 141.358 55.874 142.21 55.874C143.266 55.874 144.034 56.114 144.514 56.594C145.006 57.062 145.252 57.632 145.252 58.304C145.252 58.88 145.096 59.414 144.784 59.906C144.484 60.386 144.082 60.776 143.578 61.076C143.074 61.364 142.522 61.508 141.922 61.508C141.61 61.508 141.292 61.46 140.968 61.364C140.644 61.268 140.326 61.118 140.014 60.914C140.074 61.658 140.29 62.198 140.662 62.534C141.034 62.87 141.478 63.038 141.994 63.038C142.354 63.038 142.714 62.972 143.074 62.84C143.434 62.696 143.764 62.516 144.064 62.3C144.376 62.072 144.616 61.832 144.784 61.58L144.91 61.67C144.91 62.294 144.778 62.828 144.514 63.272C144.262 63.704 143.926 64.058 143.506 64.334C143.086 64.61 142.624 64.814 142.12 64.946C141.628 65.066 141.136 65.126 140.644 65.126ZM141.058 60.266C141.442 60.266 141.754 60.158 141.994 59.942C142.234 59.714 142.414 59.45 142.534 59.15C142.654 58.85 142.714 58.586 142.714 58.358C142.714 58.082 142.636 57.854 142.48 57.674C142.324 57.482 142.108 57.386 141.832 57.386C141.616 57.386 141.376 57.464 141.112 57.62C140.86 57.776 140.632 58.046 140.428 58.43C140.224 58.802 140.092 59.324 140.032 59.996C140.416 60.176 140.758 60.266 141.058 60.266ZM148.143 65.072C147.819 65.072 147.501 64.994 147.189 64.838C146.889 64.67 146.643 64.406 146.451 64.046C146.259 63.686 146.163 63.224 146.163 62.66C146.163 62.156 146.229 61.568 146.361 60.896C146.505 60.212 146.661 59.504 146.829 58.772C147.009 58.04 147.165 57.326 147.297 56.63C147.429 55.934 147.489 55.316 147.477 54.776C147.477 54.26 147.417 53.894 147.297 53.678L147.279 53.624C147.411 53.24 147.645 52.94 147.981 52.724C148.317 52.508 148.671 52.4 149.043 52.4C149.463 52.4 149.835 52.562 150.159 52.886C150.495 53.198 150.663 53.726 150.663 54.47C150.663 54.866 150.615 55.34 150.519 55.892C150.423 56.432 150.309 57.014 150.177 57.638C150.045 58.25 149.907 58.856 149.763 59.456C149.631 60.056 149.517 60.608 149.421 61.112C149.325 61.616 149.277 62.03 149.277 62.354C149.277 62.69 149.325 62.924 149.421 63.056C149.517 63.176 149.625 63.236 149.745 63.236C149.877 63.236 150.003 63.188 150.123 63.092C150.243 62.984 150.321 62.888 150.357 62.804L150.501 62.84C150.489 63.272 150.363 63.656 150.123 63.992C149.895 64.328 149.601 64.592 149.241 64.784C148.893 64.976 148.527 65.072 148.143 65.072ZM154.836 55.37C154.356 55.37 153.96 55.226 153.648 54.938C153.348 54.638 153.198 54.266 153.198 53.822C153.198 53.342 153.378 52.928 153.738 52.58C154.098 52.232 154.536 52.058 155.052 52.058C155.532 52.058 155.922 52.208 156.222 52.508C156.534 52.808 156.69 53.18 156.69 53.624C156.69 54.104 156.51 54.518 156.15 54.866C155.79 55.202 155.352 55.37 154.836 55.37ZM153.576 65.072C153.108 65.072 152.688 64.91 152.316 64.586C151.944 64.25 151.758 63.716 151.758 62.984C151.758 62.564 151.812 62.174 151.92 61.814C152.04 61.442 152.172 61.082 152.316 60.734C152.472 60.386 152.604 60.05 152.712 59.726C152.832 59.39 152.892 59.06 152.892 58.736C152.892 58.448 152.844 58.244 152.748 58.124C152.652 57.992 152.538 57.926 152.406 57.926C152.202 57.926 152.004 58.058 151.812 58.322L151.686 58.25C151.734 57.77 151.884 57.362 152.136 57.026C152.4 56.678 152.718 56.408 153.09 56.216C153.474 56.024 153.852 55.928 154.224 55.928C154.68 55.928 155.076 56.078 155.412 56.378C155.748 56.666 155.916 57.14 155.916 57.8C155.916 58.196 155.856 58.616 155.736 59.06C155.628 59.492 155.496 59.924 155.34 60.356C155.196 60.788 155.064 61.19 154.944 61.562C154.836 61.934 154.782 62.252 154.782 62.516C154.782 62.744 154.824 62.906 154.908 63.002C155.004 63.098 155.106 63.146 155.214 63.146C155.322 63.146 155.424 63.116 155.52 63.056C155.628 62.984 155.706 62.906 155.754 62.822L155.88 62.858C155.88 63.302 155.76 63.692 155.52 64.028C155.292 64.352 155.004 64.61 154.656 64.802C154.308 64.982 153.948 65.072 153.576 65.072ZM159.812 65.072C159.116 65.072 158.564 64.892 158.156 64.532C157.748 64.16 157.544 63.59 157.544 62.822C157.544 62.378 157.598 61.904 157.706 61.4C157.826 60.896 157.94 60.446 158.048 60.05C158.156 59.666 158.24 59.33 158.3 59.042C158.372 58.754 158.408 58.532 158.408 58.376C158.408 58.184 158.366 58.046 158.282 57.962C158.198 57.878 158.096 57.836 157.976 57.836C157.688 57.836 157.448 57.974 157.256 58.25L157.184 58.178C157.196 57.77 157.328 57.398 157.58 57.062C157.832 56.714 158.156 56.438 158.552 56.234C158.948 56.03 159.35 55.928 159.758 55.928C160.214 55.928 160.604 56.066 160.928 56.342C161.252 56.606 161.402 57.026 161.378 57.602C161.366 57.854 161.318 58.172 161.234 58.556C161.162 58.94 161.06 59.396 160.928 59.924C160.844 60.26 160.754 60.644 160.658 61.076C160.574 61.496 160.532 61.88 160.532 62.228C160.532 62.492 160.574 62.702 160.658 62.858C160.742 63.014 160.88 63.092 161.072 63.092C161.324 63.092 161.6 62.954 161.9 62.678C162.212 62.39 162.482 61.928 162.71 61.292C162.938 60.644 163.07 59.786 163.106 58.718C163.142 57.902 163.088 57.308 162.944 56.936V56.846C163.052 56.678 163.214 56.516 163.43 56.36C163.658 56.204 163.91 56.078 164.186 55.982C164.462 55.874 164.72 55.82 164.96 55.82C165.344 55.82 165.668 56.006 165.932 56.378C166.208 56.75 166.328 57.398 166.292 58.322C166.268 59.21 166.106 60.014 165.806 60.734C165.518 61.454 165.14 62.084 164.672 62.624C164.204 63.164 163.688 63.614 163.124 63.974C162.572 64.334 162.008 64.61 161.432 64.802C160.856 64.982 160.316 65.072 159.812 65.072ZM170.949 65.126C170.073 65.126 169.347 64.952 168.771 64.604C168.195 64.244 167.763 63.776 167.475 63.2C167.187 62.612 167.043 61.982 167.043 61.31C167.043 60.674 167.163 60.038 167.403 59.402C167.655 58.754 168.015 58.166 168.483 57.638C168.963 57.11 169.539 56.684 170.211 56.36C170.895 56.036 171.663 55.874 172.515 55.874C173.571 55.874 174.339 56.114 174.819 56.594C175.311 57.062 175.557 57.632 175.557 58.304C175.557 58.88 175.401 59.414 175.089 59.906C174.789 60.386 174.387 60.776 173.883 61.076C173.379 61.364 172.827 61.508 172.227 61.508C171.915 61.508 171.597 61.46 171.273 61.364C170.949 61.268 170.631 61.118 170.319 60.914C170.379 61.658 170.595 62.198 170.967 62.534C171.339 62.87 171.783 63.038 172.299 63.038C172.659 63.038 173.019 62.972 173.379 62.84C173.739 62.696 174.069 62.516 174.369 62.3C174.681 62.072 174.921 61.832 175.089 61.58L175.215 61.67C175.215 62.294 175.083 62.828 174.819 63.272C174.567 63.704 174.231 64.058 173.811 64.334C173.391 64.61 172.929 64.814 172.425 64.946C171.933 65.066 171.441 65.126 170.949 65.126ZM171.363 60.266C171.747 60.266 172.059 60.158 172.299 59.942C172.539 59.714 172.719 59.45 172.839 59.15C172.959 58.85 173.019 58.586 173.019 58.358C173.019 58.082 172.941 57.854 172.785 57.674C172.629 57.482 172.413 57.386 172.137 57.386C171.921 57.386 171.681 57.464 171.417 57.62C171.165 57.776 170.937 58.046 170.733 58.43C170.529 58.802 170.397 59.324 170.337 59.996C170.721 60.176 171.063 60.266 171.363 60.266ZM178.572 65.072C178.14 65.072 177.756 64.898 177.42 64.55C177.084 64.19 176.916 63.686 176.916 63.038C176.916 62.726 176.952 62.372 177.024 61.976C177.096 61.58 177.18 61.178 177.276 60.77C177.372 60.35 177.456 59.96 177.528 59.6C177.6 59.228 177.636 58.922 177.636 58.682C177.636 58.43 177.588 58.232 177.492 58.088C177.408 57.932 177.294 57.854 177.15 57.854C176.922 57.854 176.688 58.01 176.448 58.322L176.34 58.25C176.328 58.058 176.37 57.83 176.466 57.566C176.562 57.302 176.712 57.05 176.916 56.81C177.12 56.558 177.378 56.348 177.69 56.18C178.014 56.012 178.392 55.928 178.824 55.928C179.46 55.928 179.922 56.114 180.21 56.486C180.498 56.846 180.642 57.284 180.642 57.8C180.642 57.884 180.636 57.974 180.624 58.07C180.624 58.154 180.618 58.238 180.606 58.322C181.038 57.542 181.488 56.948 181.956 56.54C182.436 56.12 182.88 55.91 183.288 55.91C183.672 55.91 183.954 56.06 184.134 56.36C184.314 56.66 184.404 57.02 184.404 57.44C184.404 57.824 184.326 58.214 184.17 58.61C184.026 59.006 183.804 59.336 183.504 59.6C183.216 59.852 182.862 59.972 182.442 59.96L182.37 59.924C182.358 59.612 182.256 59.366 182.064 59.186C181.872 59.006 181.656 58.916 181.416 58.916C181.092 58.916 180.786 59.078 180.498 59.402C180.222 59.726 180.084 60.194 180.084 60.806C180.084 61.178 180.126 61.58 180.21 62.012C180.294 62.444 180.336 62.81 180.336 63.11C180.336 63.47 180.252 63.8 180.084 64.1C179.916 64.4 179.7 64.64 179.436 64.82C179.172 64.988 178.884 65.072 178.572 65.072ZM188.664 68.6C188.064 68.6 187.578 68.414 187.206 68.042C186.846 67.682 186.666 67.19 186.666 66.566C186.666 66.242 186.72 65.882 186.828 65.486C186.948 65.102 187.14 64.694 187.404 64.262C186.816 64.226 186.33 64.028 185.946 63.668C185.574 63.308 185.388 62.762 185.388 62.03C185.388 61.598 185.442 61.136 185.55 60.644C185.67 60.14 185.784 59.672 185.892 59.24C186 58.796 186.054 58.454 186.054 58.214C186.054 58.034 186.018 57.908 185.946 57.836C185.874 57.752 185.79 57.71 185.694 57.71C185.598 57.71 185.49 57.752 185.37 57.836C185.262 57.908 185.178 58.022 185.118 58.178L184.812 57.854C184.884 57.482 185.04 57.152 185.28 56.864C185.52 56.576 185.814 56.348 186.162 56.18C186.51 56.012 186.87 55.928 187.242 55.928C187.662 55.928 188.028 56.066 188.34 56.342C188.652 56.606 188.808 57.092 188.808 57.8C188.808 58.244 188.754 58.724 188.646 59.24C188.538 59.744 188.43 60.224 188.322 60.68C188.214 61.124 188.16 61.478 188.16 61.742C188.16 61.982 188.208 62.162 188.304 62.282C188.412 62.39 188.532 62.444 188.664 62.444C188.832 62.444 189.024 62.354 189.24 62.174C189.456 61.982 189.66 61.67 189.852 61.238C190.044 60.806 190.17 60.224 190.23 59.492C190.254 59.264 190.272 58.976 190.284 58.628C190.296 58.268 190.308 57.938 190.32 57.638C190.332 57.326 190.338 57.134 190.338 57.062C190.338 56.63 190.494 56.33 190.806 56.162C191.13 55.982 191.484 55.892 191.868 55.892C192.204 55.892 192.522 55.958 192.822 56.09C193.122 56.222 193.326 56.444 193.434 56.756L193.47 56.864C193.362 56.96 193.266 57.284 193.182 57.836C193.11 58.388 193.02 59.126 192.912 60.05C192.84 60.65 192.75 61.328 192.642 62.084C192.534 62.84 192.384 63.602 192.192 64.37C192.012 65.126 191.766 65.822 191.454 66.458C191.154 67.106 190.776 67.622 190.32 68.006C189.864 68.402 189.312 68.6 188.664 68.6ZM188.232 66.53C188.604 66.53 188.934 66.188 189.222 65.504C189.522 64.832 189.756 63.872 189.924 62.624C189.156 63.608 188.628 64.382 188.34 64.946C188.052 65.51 187.908 65.918 187.908 66.17C187.908 66.41 188.016 66.53 188.232 66.53Z" fill="#8B1874"/>
</svg>
