<svg version="1.1" id="Layer_1" xmlns="http://www.w3.org/2000/svg" xmlns:xlink="http://www.w3.org/1999/xlink" x="0px" y="0px"
	 width="100%" viewBox="0 0 810 370" enable-background="new 0 0 810 370" xml:space="preserve">
<path fill="#870282" opacity="1.000000" stroke="none" 
	d="
M503.000000,371.000000 
	C335.333344,371.000000 168.166672,371.000000 1.000000,371.000000 
	C1.000000,247.666672 1.000000,124.333336 1.000000,1.000000 
	C271.000000,1.000000 541.000000,1.000000 811.000000,1.000000 
	C811.000000,124.333336 811.000000,247.666672 811.000000,371.000000 
	C708.500000,371.000000 606.000000,371.000000 503.000000,371.000000 
M500.707245,24.251228 
	C486.824768,31.131136 477.309296,42.223286 470.651062,55.900757 
	C460.543030,76.664886 457.344635,99.132668 455.745819,121.766090 
	C454.032074,146.026413 453.889893,170.399933 452.074524,194.650116 
	C450.948303,209.693893 448.985748,224.833542 445.563263,239.501923 
	C442.208313,253.880997 434.057556,265.141205 417.355347,266.339111 
	C405.704285,267.174713 396.496948,261.598236 388.017731,254.550842 
	C375.832550,244.423279 366.467651,231.837708 358.260803,218.479080 
	C341.614838,191.383759 325.546478,163.933701 308.911865,136.831314 
	C299.745911,121.897499 289.480377,107.722008 275.943726,96.283081 
	C259.211334,82.143631 240.570251,80.514030 222.786346,93.158890 
	C215.085739,98.634254 208.320007,105.974770 202.601334,113.575386 
	C189.752991,130.651962 183.008209,150.916580 174.800354,170.401428 
	C166.666336,189.710907 158.742493,209.158096 149.467422,227.922577 
	C141.693466,243.650208 129.902832,256.058685 112.501678,261.802582 
	C100.151047,265.879364 87.991661,266.221069 76.220284,259.826508 
	C60.552971,251.315506 51.907314,237.082199 45.063717,221.412735 
	C43.565422,217.982162 42.238766,214.476624 40.833069,211.005615 
	C40.417706,211.052658 40.002346,211.099701 39.586983,211.146744 
	C39.425877,212.832123 38.953922,214.554626 39.150185,216.197311 
	C42.205250,241.767151 48.375648,266.176849 64.278053,287.295776 
	C84.383209,313.996094 124.677887,318.451996 150.058029,296.673645 
	C162.885391,285.666626 171.531006,271.689850 178.809937,256.835144 
	C188.623093,236.808578 197.596237,216.370178 207.420258,196.349152 
	C213.017029,184.943085 220.098038,174.432510 230.625854,166.735428 
	C241.215912,158.992798 253.482376,157.931473 262.673035,165.052811 
	C268.269531,169.389221 273.994324,174.274231 277.753906,180.136230 
	C290.140717,199.449951 301.772156,219.253632 313.477966,238.997055 
	C325.716980,259.639679 338.325928,279.991211 354.533264,297.862854 
	C368.165894,312.895386 383.966736,325.096893 404.262421,328.464874 
	C436.189148,333.762909 462.841217,323.506897 482.383759,297.209625 
	C497.916046,276.308746 505.026978,251.867401 508.111145,226.598801 
	C511.618195,197.865524 512.855408,168.861694 515.512878,140.015427 
	C516.807190,125.965302 518.515137,111.898781 521.111267,98.041145 
	C523.025391,87.823929 534.639648,83.189140 543.559937,88.514610 
	C547.629700,90.944321 551.842896,94.024948 554.447021,97.859009 
	C563.968445,111.877235 573.612122,125.909241 581.809204,140.711655 
	C604.713562,182.072891 625.517944,224.607330 652.039795,263.920166 
	C662.376404,279.241943 674.143860,293.323425 689.022766,304.184662 
	C711.505005,320.596039 737.055847,327.461182 764.894897,325.220215 
	C776.812500,324.260864 788.398743,321.861023 799.234375,316.362915 
	C795.255066,315.981415 791.311401,316.065094 787.372314,315.967529 
	C765.470215,315.425049 748.395081,304.661285 733.388062,289.950134 
	C711.239014,268.237671 695.282349,242.037949 680.827637,214.967422 
	C662.629395,180.886169 645.501160,146.233414 627.294556,112.156769 
	C613.475586,86.292145 598.777649,60.913219 577.632446,39.987999 
	C555.339111,17.926632 531.194580,10.245729 500.707245,24.251228 
z"/>
<path fill="#FCF9FC" opacity="1.000000" stroke="none" 
	d="
M501.059357,24.124634 
	C531.194580,10.245729 555.339111,17.926632 577.632446,39.987999 
	C598.777649,60.913219 613.475586,86.292145 627.294556,112.156769 
	C645.501160,146.233414 662.629395,180.886169 680.827637,214.967422 
	C695.282349,242.037949 711.239014,268.237671 733.388062,289.950134 
	C748.395081,304.661285 765.470215,315.425049 787.372314,315.967529 
	C791.311401,316.065094 795.255066,315.981415 799.234375,316.362915 
	C788.398743,321.861023 776.812500,324.260864 764.894897,325.220215 
	C737.055847,327.461182 711.505005,320.596039 689.022766,304.184662 
	C674.143860,293.323425 662.376404,279.241943 652.039795,263.920166 
	C625.517944,224.607330 604.713562,182.072891 581.809204,140.711655 
	C573.612122,125.909241 563.968445,111.877235 554.447021,97.859009 
	C551.842896,94.024948 547.629700,90.944321 543.559937,88.514610 
	C534.639648,83.189140 523.025391,87.823929 521.111267,98.041145 
	C518.515137,111.898781 516.807190,125.965302 515.512878,140.015427 
	C512.855408,168.861694 511.618195,197.865524 508.111145,226.598801 
	C505.026978,251.867401 497.916046,276.308746 482.383759,297.209625 
	C462.841217,323.506897 436.189148,333.762909 404.262421,328.464874 
	C383.966736,325.096893 368.165894,312.895386 354.533264,297.862854 
	C338.325928,279.991211 325.716980,259.639679 313.477966,238.997055 
	C301.772156,219.253632 290.140717,199.449951 277.753906,180.136230 
	C273.994324,174.274231 268.269531,169.389221 262.673035,165.052811 
	C253.482376,157.931473 241.215912,158.992798 230.625854,166.735428 
	C220.098038,174.432510 213.017029,184.943085 207.420258,196.349152 
	C197.596237,216.370178 188.623093,236.808578 178.809937,256.835144 
	C171.531006,271.689850 162.885391,285.666626 150.058029,296.673645 
	C124.677887,318.451996 84.383209,313.996094 64.278053,287.295776 
	C48.375648,266.176849 42.205250,241.767151 39.150185,216.197311 
	C38.953922,214.554626 39.425877,212.832123 39.586983,211.146744 
	C40.002346,211.099701 40.417706,211.052658 40.833069,211.005615 
	C42.238766,214.476624 43.565422,217.982162 45.063717,221.412735 
	C51.907314,237.082199 60.552971,251.315506 76.220284,259.826508 
	C87.991661,266.221069 100.151047,265.879364 112.501678,261.802582 
	C129.902832,256.058685 141.693466,243.650208 149.467422,227.922577 
	C158.742493,209.158096 166.666336,189.710907 174.800354,170.401428 
	C183.008209,150.916580 189.752991,130.651962 202.601334,113.575386 
	C208.320007,105.974770 215.085739,98.634254 222.786346,93.158890 
	C240.570251,80.514030 259.211334,82.143631 275.943726,96.283081 
	C289.480377,107.722008 299.745911,121.897499 308.911865,136.831314 
	C325.546478,163.933701 341.614838,191.383759 358.260803,218.479080 
	C366.467651,231.837708 375.832550,244.423279 388.017731,254.550842 
	C396.496948,261.598236 405.704285,267.174713 417.355347,266.339111 
	C434.057556,265.141205 442.208313,253.880997 445.563263,239.501923 
	C448.985748,224.833542 450.948303,209.693893 452.074524,194.650116 
	C453.889893,170.399933 454.032074,146.026413 455.745819,121.766090 
	C457.344635,99.132668 460.543030,76.664886 470.651062,55.900757 
	C477.309296,42.223286 486.824768,31.131136 501.059357,24.124634 
z"/>
</svg>