<svg width="14" height="19" viewBox="0 0 14 19" fill="none" xmlns="http://www.w3.org/2000/svg">
<path d="M9.33333 0.583333C9.33333 1.67101 9.53385 2.67361 9.9349 3.59115C10.3359 4.50868 10.9132 5.3533 11.6667 6.125C12.4201 6.8967 12.9974 7.74132 13.3984 8.65885C13.7995 9.57639 14 10.579 14 11.6667C14 12.3108 13.918 12.9306 13.7539 13.526C13.5898 14.1215 13.3529 14.6775 13.043 15.194C12.7331 15.7105 12.3685 16.1845 11.9492 16.6159C11.5299 17.0473 11.059 17.4119 10.5365 17.7096C10.0139 18.0074 9.45486 18.2413 8.85938 18.4115C8.26389 18.5816 7.6441 18.6667 7 18.6667C6.3559 18.6667 5.73611 18.5846 5.14062 18.4206C4.54514 18.2565 3.98915 18.0195 3.47266 17.7096C2.95616 17.3997 2.4822 17.0352 2.05078 16.6159C1.61936 16.1966 1.25477 15.7257 0.957031 15.2031C0.659288 14.6806 0.425347 14.1215 0.255208 13.526C0.0850694 12.9306 0 12.3108 0 11.6667C0 11.1562 0.0546875 10.6549 0.164062 10.1628C0.273438 9.67057 0.431424 9.19965 0.638021 8.75C0.844618 8.30035 1.09983 7.87196 1.40365 7.46484C1.70747 7.05772 2.05078 6.6901 2.43359 6.36198C2.47613 6.59288 2.53385 6.82986 2.60677 7.07292C2.67969 7.31597 2.76476 7.55903 2.86198 7.80208C2.9592 8.04514 3.07465 8.27604 3.20833 8.49479C3.34201 8.71354 3.48177 8.9171 3.6276 9.10547C3.74913 9.25738 3.90712 9.33333 4.10156 9.33333C4.26562 9.33333 4.40234 9.27561 4.51172 9.16015C4.62109 9.0447 4.67882 8.90495 4.6849 8.74088C4.6849 8.67404 4.67578 8.61328 4.65755 8.55859C4.63932 8.5039 4.60894 8.44922 4.56641 8.39453C4.39627 8.1454 4.2474 7.8993 4.11979 7.65625C3.99219 7.41319 3.87977 7.16406 3.78255 6.90885C3.68533 6.65364 3.61545 6.38932 3.57292 6.11588C3.53038 5.84245 3.50608 5.55382 3.5 5.25C3.5 4.52691 3.63672 3.84635 3.91016 3.20833C4.18359 2.57031 4.56033 2.01432 5.04036 1.54036C5.5204 1.06641 6.07639 0.692708 6.70833 0.419271C7.34028 0.145833 8.02083 0.00607639 8.75 0H9.33333V0.583333ZM7 17.5C7.80816 17.5 8.56467 17.3481 9.26953 17.0443C9.97439 16.7404 10.5942 16.3242 11.1289 15.7956C11.6636 15.2669 12.0799 14.6502 12.3776 13.9453C12.6753 13.2404 12.8273 12.4809 12.8333 11.6667C12.8333 10.7491 12.6632 9.8954 12.3229 9.10547C11.9826 8.31554 11.4905 7.59852 10.8464 6.95443C10.0564 6.15842 9.43663 5.28038 8.98698 4.32031C8.53733 3.36024 8.26997 2.32118 8.1849 1.20312C7.68056 1.26996 7.21571 1.42187 6.79036 1.65885C6.36502 1.89583 5.99132 2.19661 5.66927 2.5612C5.34722 2.92578 5.10113 3.33594 4.93099 3.79167C4.76085 4.2474 4.67274 4.73351 4.66667 5.25C4.66667 5.72396 4.73655 6.15234 4.8763 6.53515C5.01606 6.91797 5.22266 7.30078 5.49609 7.68359C5.61155 7.84158 5.69965 8.00564 5.76042 8.17578C5.82118 8.34592 5.8546 8.53429 5.86068 8.74088C5.86068 8.98394 5.8151 9.2118 5.72396 9.42448C5.63281 9.63715 5.50521 9.82248 5.34115 9.98047C5.17708 10.1385 4.99175 10.2661 4.78516 10.3633C4.57856 10.4605 4.35069 10.5061 4.10156 10.5C3.82205 10.5 3.57595 10.4483 3.36328 10.345C3.15061 10.2418 2.96224 10.102 2.79818 9.92578C2.63411 9.74956 2.48828 9.55208 2.36068 9.33333C2.23307 9.11458 2.11155 8.89583 1.99609 8.67708C1.71658 9.12066 1.50998 9.59765 1.3763 10.1081C1.24262 10.6185 1.17274 11.138 1.16667 11.6667C1.16667 12.4748 1.31858 13.2313 1.6224 13.9362C1.92622 14.6411 2.34245 15.2608 2.87109 15.7956C3.39974 16.3303 4.01649 16.7465 4.72135 17.0443C5.42622 17.342 6.18576 17.4939 7 17.5Z" fill="#7B7B7B"/>
</svg>
