<svg width="25" height="25" viewBox="0 0 25 25" fill="none" xmlns="http://www.w3.org/2000/svg">
<path d="M0 1.05C0 0.771523 0.110632 0.504451 0.307559 0.307538C0.504486 0.110625 0.771577 0 1.05007 0H1.83133C3.16142 0 3.95948 0.8946 4.41451 1.7262C4.71833 2.2806 4.93815 2.9232 5.11036 3.5056C5.15694 3.50192 5.20364 3.50006 5.25037 3.5H22.7488C23.9109 3.5 24.7509 4.6116 24.4317 5.7302L21.8723 14.7028C21.6429 15.5076 21.1574 16.2157 20.4894 16.7199C19.8215 17.2242 19.0074 17.497 18.1705 17.4972H9.84269C8.99912 17.4972 8.17889 17.2202 7.50806 16.7088C6.83723 16.1974 6.35294 15.4798 6.12963 14.6664L5.06555 10.7856L3.30143 4.8384L3.30003 4.8272C3.08162 4.0334 2.8772 3.29 2.57198 2.7356C2.27936 2.1966 2.04414 2.1 1.83273 2.1H1.05007C0.771577 2.1 0.504486 1.98938 0.307559 1.79246C0.110632 1.59555 0 1.32848 0 1.05ZM7.1027 10.276L8.15417 14.1106C8.36419 14.8694 9.05443 15.3972 9.84269 15.3972H18.1705C18.5509 15.3972 18.9209 15.2732 19.2246 15.0441C19.5283 14.815 19.749 14.4932 19.8534 14.1274L22.2854 5.6H5.7194L7.0831 10.2018L7.1027 10.276ZM11.9008 21.7C11.9008 22.4426 11.6058 23.1548 11.0807 23.6799C10.5555 24.205 9.84329 24.5 9.10064 24.5C8.35798 24.5 7.64574 24.205 7.1206 23.6799C6.59546 23.1548 6.30044 22.4426 6.30044 21.7C6.30044 20.9574 6.59546 20.2452 7.1206 19.7201C7.64574 19.195 8.35798 18.9 9.10064 18.9C9.84329 18.9 10.5555 19.195 11.0807 19.7201C11.6058 20.2452 11.9008 20.9574 11.9008 21.7ZM9.80068 21.7C9.80068 21.5143 9.72693 21.3363 9.59565 21.205C9.46436 21.0737 9.2863 21 9.10064 21C8.91497 21 8.73691 21.0737 8.60563 21.205C8.47434 21.3363 8.40059 21.5143 8.40059 21.7C8.40059 21.8857 8.47434 22.0637 8.60563 22.195C8.73691 22.3263 8.91497 22.4 9.10064 22.4C9.2863 22.4 9.46436 22.3263 9.59565 22.195C9.72693 22.0637 9.80068 21.8857 9.80068 21.7ZM21.7015 21.7C21.7015 22.4426 21.4065 23.1548 20.8814 23.6799C20.3562 24.205 19.644 24.5 18.9013 24.5C18.1587 24.5 17.4464 24.205 16.9213 23.6799C16.3961 23.1548 16.1011 22.4426 16.1011 21.7C16.1011 20.9574 16.3961 20.2452 16.9213 19.7201C17.4464 19.195 18.1587 18.9 18.9013 18.9C19.644 18.9 20.3562 19.195 20.8814 19.7201C21.4065 20.2452 21.7015 20.9574 21.7015 21.7ZM19.6014 21.7C19.6014 21.5143 19.5276 21.3363 19.3963 21.205C19.265 21.0737 19.087 21 18.9013 21C18.7157 21 18.5376 21.0737 18.4063 21.205C18.275 21.3363 18.2013 21.5143 18.2013 21.7C18.2013 21.8857 18.275 22.0637 18.4063 22.195C18.5376 22.3263 18.7157 22.4 18.9013 22.4C19.087 22.4 19.265 22.3263 19.3963 22.195C19.5276 22.0637 19.6014 21.8857 19.6014 21.7Z" fill="white"/>
</svg>
