<svg width="20" height="15" viewBox="0 0 20 15" fill="none" xmlns="http://www.w3.org/2000/svg">
<path d="M1.42853 6.81744H9.99974V8.18093H1.42853V6.81744ZM0 3.40873H7.14267V4.77222H0V3.40873Z" fill="#13B436"/>
<path d="M19.9422 7.23057L17.7994 2.45836C17.7444 2.33571 17.6529 2.23116 17.5362 2.15772C17.4195 2.08427 17.2828 2.04516 17.143 2.04523H15.0002V0.681743C15.0002 0.500933 14.925 0.32753 14.791 0.199678C14.6571 0.0718264 14.4754 0 14.2859 0H2.85766V1.36349H13.5717V9.92345C13.2462 10.1038 12.9614 10.3439 12.7336 10.6299C12.5058 10.9159 12.3396 11.2421 12.2446 11.5896H7.75611C7.58226 10.947 7.16881 10.3869 6.59327 10.0144C6.01773 9.64188 5.31961 9.4825 4.62976 9.56613C3.93991 9.64977 3.3057 9.97067 2.846 10.4687C2.38631 10.9667 2.13269 11.6076 2.13269 12.2714C2.13269 12.9351 2.38631 13.576 2.846 14.0741C3.3057 14.5721 3.93991 14.893 4.62976 14.9766C5.31961 15.0602 6.01773 14.9009 6.59327 14.5284C7.16881 14.1558 7.58226 13.5958 7.75611 12.9531H12.2446C12.3999 13.5382 12.7553 14.0572 13.2544 14.4278C13.7535 14.7985 14.3678 14.9998 15.0002 14.9998C15.6326 14.9998 16.2469 14.7985 16.746 14.4278C17.2451 14.0572 17.6005 13.5382 17.7559 12.9531H19.2858C19.4752 12.9531 19.6569 12.8813 19.7909 12.7534C19.9248 12.6256 20.0001 12.4522 20.0001 12.2714V7.49917C20.0001 7.40681 19.9804 7.31542 19.9422 7.23057ZM5.00046 13.6349C4.71792 13.6349 4.44173 13.5549 4.20681 13.4051C3.97189 13.2552 3.78879 13.0423 3.68067 12.7932C3.57255 12.544 3.54426 12.2699 3.59938 12.0054C3.6545 11.7409 3.79055 11.4979 3.99034 11.3072C4.19012 11.1166 4.44466 10.9867 4.72177 10.9341C4.99888 10.8815 5.28611 10.9085 5.54714 11.0117C5.80817 11.1149 6.03128 11.2896 6.18825 11.5139C6.34522 11.7381 6.429 12.0017 6.429 12.2714C6.42862 12.6329 6.27799 12.9795 6.01017 13.2351C5.74235 13.4907 5.37922 13.6345 5.00046 13.6349ZM15.0002 3.40871H16.6716L18.203 6.81743H15.0002V3.40871ZM15.0002 13.6349C14.7177 13.6349 14.4415 13.5549 14.2066 13.4051C13.9716 13.2552 13.7885 13.0423 13.6804 12.7932C13.5723 12.544 13.544 12.2699 13.5991 12.0054C13.6542 11.7409 13.7903 11.4979 13.9901 11.3072C14.1899 11.1166 14.4444 10.9867 14.7215 10.9341C14.9986 10.8815 15.2859 10.9085 15.5469 11.0117C15.8079 11.1149 16.031 11.2896 16.188 11.5139C16.345 11.7381 16.4287 12.0017 16.4287 12.2714C16.4284 12.6329 16.2777 12.9795 16.0099 13.2351C15.7421 13.4907 15.379 13.6345 15.0002 13.6349ZM18.5715 11.5896H17.7559C17.5985 11.0057 17.2426 10.4881 16.7439 10.1179C16.2452 9.74779 15.6319 9.54608 15.0002 9.5444V8.18091H18.5715V11.5896Z" fill="#13B436"/>
</svg>
