<?xml version="1.0" encoding="UTF-8"?>
<!DOCTYPE svg PUBLIC "-//W3C//DTD SVG 1.1//EN" "http://www.w3.org/Graphics/SVG/1.1/DTD/svg11.dtd">
<!-- Creator: CorelDRAW X5 -->
<svg xmlns="http://www.w3.org/2000/svg" xml:space="preserve" width="36.961mm" height="41.4536mm" style="shape-rendering:geometricPrecision; text-rendering:geometricPrecision; image-rendering:optimizeQuality; fill-rule:evenodd; clip-rule:evenodd"
viewBox="0 0 1762 1976"
 xmlns:xlink="http://www.w3.org/1999/xlink">
 <defs>
  <style type="text/css">
   <![CDATA[
    .fil0 {fill:#2B2A29}
   ]]>
  </style>
 </defs>
 <g id="Layer_x0020_1">
  <metadata id="CorelCorpID_0Corel-Layer"/>
  <path class="fil0" d="M775 1385c9,-16 36,-37 52,-54 12,-12 43,-48 54,-55 11,7 41,42 53,54 14,15 45,40 53,55 -18,18 -34,36 -52,54l-54 54c-9,-8 -17,-17 -25,-26 -6,-6 -8,-7 -14,-13 -11,-9 -52,-55 -66,-69zm7 -416c33,-9 57,15 63,40 7,31 -14,59 -38,65 -66,16 -92,-86 -25,-104zm173 1c64,-20 92,80 31,102 -32,12 -60,-11 -67,-36 -5,-16 -2,-30 6,-43 7,-12 13,-18 30,-23zm-324 -84c31,-7 56,17 61,42 6,31 -15,58 -41,63 -66,13 -87,-91 -19,-106zm481 0c31,-7 57,16 62,41 7,32 -14,58 -39,64 -69,15 -88,-89 -23,-105zm-611 -119c30,-8 57,16 62,40 7,32 -14,59 -39,65 -64,15 -91,-86 -22,-105zm738 0c30,-9 57,14 63,39 8,31 -13,58 -35,65 -66,20 -97,-83 -28,-103zm133 24c54,-12 91,-54 96,-115 8,1 165,85 185,96 48,26 44,44 33,96 -30,139 -79,301 -137,429 -32,71 -57,121 -96,186 -21,35 -80,122 -111,155l-24 27c-16,19 -32,32 -35,37 -13,16 -77,68 -95,81 -27,19 -55,38 -87,55 -180,91 -255,88 -433,1 -64,-32 -115,-76 -166,-119 -11,-10 -42,-41 -51,-52 -6,-7 -12,-12 -17,-19 -20,-26 -37,-43 -63,-80 -34,-48 -83,-123 -108,-177 -35,-75 -56,-114 -87,-196 -41,-109 -72,-214 -97,-328 -20,-90 2,-80 125,-146 14,-7 84,-47 93,-48 5,62 42,104 95,116 1,29 -8,71 27,110 23,25 52,43 99,43 5,61 41,103 94,116 30,8 38,1 65,-2 10,19 11,26 23,43 34,46 93,55 147,35 0,16 0,32 0,47 0,26 4,25 -11,40l-50 50c-16,17 -31,33 -47,50 -14,14 -40,31 -45,54 -6,31 31,61 57,87l72 74c50,53 62,59 116,1 17,-18 32,-34 48,-51l49 -48c29,-30 53,-52 15,-92l-26 -24 -71 -75c-37,-39 -37,-22 -37,-63 0,-17 0,-33 0,-50 40,14 70,18 108,-3 25,-13 53,-41 60,-75 47,9 80,6 112,-19 24,-19 46,-50 48,-94 25,-1 37,-2 58,-12 31,-15 55,-43 65,-77 8,-28 3,-38 3,-64zm-40 -173c67,-19 92,82 30,103 -65,22 -98,-83 -30,-103zm-925 -1c32,-8 57,16 62,42 6,31 -15,57 -39,63 -65,17 -92,-87 -23,-105zm81 -51c9,-10 21,-18 30,-27 26,-27 52,-64 67,-102 34,-84 23,-161 19,-252 -1,-25 -5,-34 10,-47 107,-92 446,-87 538,2 13,12 8,27 7,49 -5,95 -14,165 20,249 15,37 42,75 68,102 9,9 20,17 29,26l-4 4c-44,41 -51,62 -46,127 -28,4 -57,25 -67,39 -20,28 -22,36 -29,77 -36,1 -57,7 -80,26 -18,14 -33,33 -42,63 -55,-14 -96,4 -125,31 -36,-30 -62,-44 -125,-31 -7,-29 -26,-51 -42,-64 -23,-19 -44,-23 -81,-26 -5,-38 -11,-51 -29,-77 -10,-14 -40,-36 -67,-39 10,-96 -30,-107 -49,-131zm398 1410c58,0 139,-27 186,-48 84,-37 150,-80 216,-136 25,-21 39,-40 59,-58 20,-18 16,-18 28,-30 11,-11 18,-20 27,-31 14,-15 38,-49 51,-66 129,-173 230,-435 284,-653 15,-59 41,-138 8,-191 -18,-29 -30,-37 -63,-55 -74,-40 -157,-82 -231,-122 -27,-14 -51,-27 -77,-41 -22,-11 -36,-19 -55,-33 -6,-5 -9,-7 -14,-13 -139,-120 -53,-302 -81,-375 -9,-23 -38,-48 -57,-61 -24,-16 -50,-27 -81,-37 -115,-37 -300,-36 -415,0 -48,15 -120,51 -136,98 -13,37 7,166 0,221 -10,83 -59,143 -115,179 -12,8 -98,53 -115,62 -51,27 -102,53 -154,81 -26,14 -51,26 -77,41 -31,17 -45,27 -61,56 -30,55 -5,131 10,190 31,122 70,243 118,352 44,100 103,215 167,300 27,35 73,97 107,128 19,17 39,41 59,58 21,17 42,35 66,52 90,62 226,131 344,131z"/>
 </g>
</svg>
