<svg width="10" height="15" viewBox="0 0 10 15" fill="none" xmlns="http://www.w3.org/2000/svg">
<path d="M5 0C7.06875 0 8.75 1.9 8.75 4.25C8.75 7.43571 5 12.1429 5 12.1429C5 12.1429 1.25 7.43571 1.25 4.25C1.25 1.9 2.93125 0 5 0ZM5 2.85714C4.66848 2.85714 4.35054 3.00765 4.11612 3.27556C3.8817 3.54347 3.75 3.90683 3.75 4.28571C3.75 4.6646 3.8817 5.02796 4.11612 5.29587C4.35054 5.56378 4.66848 5.71429 5 5.71429C5.33152 5.71429 5.64946 5.56378 5.88388 5.29587C6.1183 5.02796 6.25 4.6646 6.25 4.28571C6.25 3.90683 6.1183 3.54347 5.88388 3.27556C5.64946 3.00765 5.33152 2.85714 5 2.85714ZM10 12.1429C10 13.7214 7.7625 15 5 15C2.2375 15 0 13.7214 0 12.1429C0 11.2214 0.7625 10.4 1.94375 9.87857L2.34375 10.5286C1.66875 10.85 1.25 11.2929 1.25 11.7857C1.25 12.7714 2.93125 13.5714 5 13.5714C7.06875 13.5714 8.75 12.7714 8.75 11.7857C8.75 11.2929 8.33125 10.85 7.65625 10.5286L8.05625 9.87857C9.2375 10.4 10 11.2214 10 12.1429Z" fill="#13B436"/>
</svg>
