<svg width="35" height="35" viewBox="0 0 35 35" fill="none" xmlns="http://www.w3.org/2000/svg">
<path d="M7.61522 5.95273C7.01639 6.07851 6.69373 6.23711 6.37108 6.56523C6.10311 6.83867 5.93631 7.12031 5.81873 7.49765L5.75584 7.69726L5.74764 17.0078C5.73944 27.2125 5.7285 26.5098 5.9035 26.9445C6.16326 27.5898 6.68553 28.041 7.39647 28.2242C7.50584 28.2543 9.32967 28.2598 16.9258 28.2598C25.9465 28.2598 26.3265 28.257 26.4961 28.2105C27.1469 28.0246 27.6855 27.5434 27.9234 26.9336C28.0793 26.5371 28.0683 27.2262 28.0683 17.1035C28.0683 8.15117 28.0656 7.74375 28.0191 7.56054C27.7976 6.71289 27.0949 6.08125 26.239 5.96367C26.0914 5.9418 23.2422 5.93359 16.8492 5.93633C11.8015 5.93906 7.6453 5.94453 7.61522 5.95273ZM20.6226 11.1262C21.298 11.2984 21.8805 11.8727 22.5996 13.0758C22.6816 13.2125 22.75 13.3273 22.75 13.3301C22.75 13.3355 22.8129 13.4477 22.8894 13.5816C22.966 13.7129 23.2449 14.2461 23.5101 14.7656C24.325 16.368 24.6394 16.9422 25.014 17.5109C25.4953 18.2437 26.0367 18.8016 26.4879 19.0285C26.8433 19.2062 26.9254 19.2281 27.3109 19.2418C27.5078 19.25 27.6719 19.2664 27.6719 19.2773C27.6719 19.291 27.568 19.332 27.4422 19.3703C26.5699 19.6437 25.6348 19.5535 24.9265 19.1297C24.8254 19.0695 24.7187 19.0039 24.6914 18.9902C24.5109 18.8836 24.0625 18.4488 23.8574 18.1809C23.5566 17.7926 23.0617 16.9969 22.6406 16.2285C22.5914 16.1383 22.523 16.0152 22.4902 15.9551C22.4547 15.8949 22.3781 15.7527 22.318 15.6406C21.3801 13.8715 21.2051 13.5789 20.907 13.2645C20.6418 12.9883 20.4504 12.9254 20.2344 13.0457C20.0047 13.1742 19.9254 13.5078 19.8789 14.5605C19.8324 15.5887 19.7941 16.0672 19.7012 16.7207C19.4277 18.6211 18.5691 19.6328 17.2265 19.6383C16.5457 19.6383 16.0344 19.3812 15.4492 18.7414C15.0637 18.3203 14.6781 17.7434 14.1695 16.8383C13.6172 15.8566 13.3793 15.5012 13.0976 15.2551C12.8871 15.0691 12.723 15.0008 12.5234 15.0199C12.0203 15.0637 11.6129 15.5477 11.1152 16.6934C10.6012 17.8773 10.2566 18.4352 9.81639 18.7879C9.46365 19.0723 8.90858 19.1844 8.42733 19.0723C8.091 18.993 7.7328 18.7523 7.4785 18.4297C7.3992 18.3312 7.18045 17.902 7.09569 17.6777C6.92889 17.2348 6.78123 16.4172 6.8578 16.368C6.87147 16.3598 6.92342 16.4555 6.97264 16.5785C7.02459 16.7016 7.10115 16.8629 7.14217 16.934C7.18319 17.0051 7.21873 17.0707 7.21873 17.0789C7.21873 17.0898 7.27069 17.1664 7.33358 17.2512C7.49217 17.459 7.71365 17.6477 7.92694 17.7543C8.09373 17.8363 8.12655 17.8418 8.39451 17.8418C8.6324 17.8418 8.7117 17.8309 8.85936 17.7762C9.49647 17.5383 9.89022 16.9996 10.4043 15.668C11.0605 13.9645 11.364 13.4559 11.9219 13.125C12.7722 12.6191 13.4668 13.0621 14.4758 14.752C14.5933 14.9461 14.7301 15.1758 14.782 15.2633C14.834 15.348 14.875 15.4246 14.875 15.4328C14.875 15.4437 14.8969 15.4848 14.9269 15.5258C14.9543 15.5668 15.039 15.7035 15.1129 15.832C15.6269 16.7043 15.9332 17.1336 16.2722 17.4562C16.5402 17.7105 16.6523 17.7816 16.923 17.8719C17.0707 17.9184 17.2129 17.9129 17.4234 17.85C17.5738 17.8062 17.7488 17.6422 17.8472 17.4535C18.0687 17.0324 18.1152 16.677 18.1972 14.793C18.2574 13.4613 18.3422 12.898 18.5664 12.343C18.8508 11.6457 19.2828 11.2629 19.9527 11.118C20.2097 11.0633 20.382 11.066 20.6226 11.1262ZM14.2242 20.9973C14.3062 21.0711 14.3144 21.093 14.3144 21.2324C14.3144 21.3719 14.3062 21.3937 14.2242 21.4676C14.1504 21.5359 14.1121 21.5469 13.9836 21.5469C13.8469 21.5469 13.8222 21.5387 13.7375 21.4539C13.6637 21.3801 13.6445 21.3391 13.6445 21.2488C13.6445 21.0246 13.7539 20.9207 13.9918 20.918C14.1121 20.918 14.1504 20.9316 14.2242 20.9973ZM16.3433 21.8422C16.7808 22.009 17.0597 22.4383 17.0625 22.9359C17.0652 23.7371 16.3597 24.2758 15.5777 24.0734C14.8695 23.8902 14.5086 23.0699 14.8367 22.3973C14.9734 22.1211 15.2851 21.8668 15.5777 21.793C15.7472 21.752 16.182 21.7793 16.3433 21.8422ZM10.2265 21.875C10.2265 21.9707 10.2347 21.9734 10.3305 21.9051C10.4644 21.8121 10.6039 21.7848 10.8719 21.7984C11.0797 21.8094 11.1453 21.8258 11.2437 21.8832C11.3121 21.9215 11.3805 21.9734 11.4023 21.998C11.4324 22.0363 11.4461 22.0336 11.5254 21.9734C11.7441 21.8039 12.2637 21.7355 12.559 21.8367C12.723 21.8914 12.9008 22.0527 13.0019 22.2332L13.084 22.3809L13.0922 23.234L13.1004 24.0898H12.7859H12.4715L12.4633 23.3707C12.4551 22.7117 12.4496 22.6461 12.3976 22.5477C12.332 22.4191 12.1953 22.3398 12.0422 22.3398C11.9492 22.3398 11.9082 22.359 11.8097 22.4465L11.6894 22.5531L11.6812 23.3215L11.673 24.0898H11.3476H11.0222L11.014 23.3297C11.0058 22.493 11.0058 22.4984 10.8254 22.3973C10.6312 22.2879 10.4015 22.348 10.284 22.5422C10.2293 22.627 10.2265 22.6762 10.2265 23.3625V24.0898H9.89842H9.5703V22.9715V21.8504L9.72889 21.834C9.81365 21.8258 9.90936 21.8148 9.93944 21.8094C9.96951 21.8039 10.0461 21.7984 10.1117 21.7957C10.2211 21.793 10.2265 21.7957 10.2265 21.875ZM14.3008 22.9414V24.0898H13.9863H13.6719L13.6664 22.9414L13.6582 21.793H13.9808H14.3008V22.9414ZM18.8781 21.8832C18.9519 21.9242 19.0148 21.957 19.0203 21.957C19.0258 21.957 19.0312 21.9187 19.0312 21.8723V21.7848L19.2308 21.8039C19.3375 21.8148 19.4824 21.8285 19.5508 21.8367L19.6738 21.8531L19.6601 23.0617L19.6465 24.2676L19.559 24.4453C19.4523 24.6668 19.2719 24.8582 19.0832 24.9512C18.7879 25.1016 18.2765 25.1043 17.8992 24.9621C17.7379 24.8992 17.5 24.7324 17.5 24.6832C17.5027 24.6668 17.5629 24.5848 17.6394 24.5027L17.7762 24.3578L17.9375 24.4289C18.2547 24.5711 18.6347 24.5793 18.8125 24.4508C18.9109 24.377 19.0039 24.1965 19.023 24.0379L19.0394 23.8984L18.8699 23.9859C18.7359 24.0543 18.6594 24.0734 18.4898 24.0844C18.0332 24.109 17.6914 23.9395 17.5137 23.5949C17.1992 22.9879 17.4043 22.1539 17.9293 21.8996C18.1152 21.8094 18.1972 21.7957 18.4844 21.8012C18.7086 21.8066 18.7605 21.8176 18.8781 21.8832ZM20.7019 21.8395C20.7047 21.8668 20.7047 21.9105 20.7019 21.9352C20.6965 21.9898 20.7676 22.0035 20.7976 21.9543C20.8058 21.9379 20.8797 21.8941 20.9562 21.8586C21.0656 21.8066 21.1422 21.793 21.309 21.793C21.4238 21.793 21.5195 21.8012 21.5195 21.8121C21.5195 21.8914 21.4238 22.4219 21.4074 22.4219C21.3965 22.4219 21.3527 22.4027 21.3117 22.3809C21.1969 22.3207 21.0328 22.3289 20.9316 22.4C20.8469 22.4574 20.6937 22.668 20.7019 22.7145C20.7047 22.7254 20.7047 23.0398 20.7019 23.4117L20.6992 24.0898H20.3847H20.0703V22.9715V21.8504L20.1879 21.8367C20.609 21.782 20.6992 21.782 20.7019 21.8395ZM23.3543 21.8395C23.4609 21.8723 23.543 21.927 23.6441 22.0281C23.8683 22.2496 23.8793 22.3098 23.893 23.275L23.9012 24.0898H23.573H23.2422V24.0051C23.2422 23.9586 23.234 23.9258 23.223 23.9312C22.9195 24.0871 22.698 24.1227 22.4246 24.0625C22.0226 23.9723 21.8203 23.7344 21.8203 23.3488C21.8203 22.9988 22.039 22.6734 22.3371 22.5777C22.5394 22.5121 22.8621 22.5176 23.0644 22.5859C23.2558 22.6516 23.2422 22.6516 23.2422 22.5996C23.2422 22.4984 23.1574 22.3973 23.0371 22.3535C22.8894 22.2961 22.6023 22.3152 22.3699 22.3973C22.2879 22.4246 22.2168 22.4465 22.214 22.441C22.184 22.4055 21.9844 22.0801 21.9844 22.0664C21.9844 22.0309 22.2824 21.8969 22.4683 21.8477C22.7199 21.7793 23.1574 21.7766 23.3543 21.8395Z" fill="white"/>
<path d="M15.6078 22.3945C15.4246 22.493 15.3125 22.6926 15.3125 22.9223C15.3125 23.3051 15.5367 23.543 15.8922 23.543C16.2395 23.5402 16.4664 23.3023 16.4637 22.9359C16.4637 22.5668 16.2395 22.3398 15.8813 22.3398C15.7664 22.3426 15.6762 22.359 15.6078 22.3945Z" fill="white"/>
<path d="M18.3777 22.3426C18.014 22.4137 17.8281 22.8567 18.0031 23.2285C18.0387 23.3024 18.0933 23.3871 18.1234 23.4145C18.2519 23.5293 18.5418 23.5758 18.7168 23.5074C18.9492 23.4172 19.0312 23.2723 19.0312 22.9551C19.0285 22.6106 18.9273 22.4438 18.6676 22.3563C18.5965 22.3317 18.5281 22.3125 18.5172 22.3152C18.5062 22.318 18.4433 22.3289 18.3777 22.3426Z" fill="white"/>
<path d="M22.6187 23.007C22.3562 23.1 22.3015 23.3434 22.5066 23.4965C22.6707 23.6168 23.141 23.5731 23.2148 23.4336C23.2531 23.3598 23.2476 23.1547 23.2039 23.1C23.1164 22.9824 22.8156 22.9332 22.6187 23.007Z" fill="white"/>
</svg>
