<?xml version="1.0" encoding="UTF-8"?>
<!DOCTYPE svg PUBLIC "-//W3C//DTD SVG 1.1//EN" "http://www.w3.org/Graphics/SVG/1.1/DTD/svg11.dtd">
<!-- Creator: CorelDRAW X5 -->
<svg xmlns="http://www.w3.org/2000/svg" xml:space="preserve" width="36.3105mm" height="34.6098mm" style="shape-rendering:geometricPrecision; text-rendering:geometricPrecision; image-rendering:optimizeQuality; fill-rule:evenodd; clip-rule:evenodd"
viewBox="0 0 543 517"
 xmlns:xlink="http://www.w3.org/1999/xlink">
 <defs>
  <style type="text/css">
   <![CDATA[
    .fil0 {fill:black}
    .fil1 {fill:#F7F7FA}
   ]]>
  </style>
 </defs>
 <g id="Layer_x0020_1">
  <metadata id="CorelCorpID_0Corel-Layer"/>
  <path class="fil0" d="M91 493c4,-4 4,-2 4,-10 6,6 2,4 12,6 -8,2 -6,0 -6,10 -4,-6 -2,-6 -10,-6zm218 -352c5,0 10,4 10,10 0,5 -4,10 -10,10 -5,0 -10,-4 -10,-10 0,-5 4,-10 10,-10zm-243 316c-8,-10 -22,-32 -30,-42 -46,-67 -42,-57 44,-111 30,-18 55,-38 83,-59l77 -65c4,4 30,40 46,53 10,12 38,38 52,46 -9,22 -244,197 -256,200l-12 -18c32,-18 55,-32 85,-52 14,-9 56,-39 65,-53 -4,1 -139,91 -155,101zm307 -347c-1,0 -1,0 -2,1 0,0 -1,-1 -1,-1 -4,-1 -7,-5 -7,-9 0,-5 4,-10 10,-10 5,0 10,4 10,10 0,5 -4,9 -9,9zm67 -60c1,1 2,2 2,3 0,1 0,2 0,3 0,5 -4,10 -10,10 -3,0 -6,-2 -8,-4l0 0 0 0c-1,-1 -1,-3 -1,-5 0,-5 4,-10 10,-10 3,0 5,1 7,3zm-178 112c0,0 0,0 2,0l8 -6c14,-12 50,-36 59,-46 8,-12 50,-55 59,-59 -4,6 -10,10 -16,16 -22,28 -87,89 -113,95zm151 -129c8,-8 24,-20 34,-28 14,8 30,26 30,46 -16,-28 2,-12 -28,-42 -12,6 -28,22 -36,24zm-108 159c3,-22 24,-27 46,-42 22,-14 32,-30 57,-46 16,-8 16,-12 28,-22 22,-24 63,10 44,-46 -4,-12 -12,-22 -20,-30 -16,-14 -20,-6 -32,4 -10,8 -18,14 -28,22 -20,16 -38,30 -53,48 -36,38 -59,52 -97,81 -8,6 -8,4 -4,12 -8,-4 -8,0 -14,4 -59,52 -113,95 -180,137 -18,10 -40,22 -48,38 -8,12 -2,24 4,34 16,26 77,105 83,125l-30 4c32,4 87,0 121,0 113,0 252,6 361,0l-369 -8c12,-6 32,-4 44,-10l-111 12c38,-38 260,-183 270,-223 -22,-8 -76,-66 -73,-94z"/>
  <path class="fil0" d="M202 290c12,-8 69,-53 81,-61 8,6 48,61 57,67 -4,-10 -50,-63 -55,-75 -6,4 -81,63 -83,69z"/>
  <path class="fil0" d="M271 279c-8,-16 -6,-32 10,-42 -14,0 -28,22 -10,42z"/>
  <path class="fil1" d="M263 261c8,0 6,0 10,6 0,-10 -2,-8 6,-10 -10,-2 -6,0 -12,-6 0,8 0,6 -4,10z"/>
 </g>
</svg>
