<?xml version="1.0" encoding="UTF-8"?>
<!DOCTYPE svg PUBLIC "-//W3C//DTD SVG 1.1//EN" "http://www.w3.org/Graphics/SVG/1.1/DTD/svg11.dtd">
<!-- Creator: CorelDRAW X5 -->
<svg xmlns="http://www.w3.org/2000/svg" xml:space="preserve" width="39.5911mm" height="35.2154mm" style="shape-rendering:geometricPrecision; text-rendering:geometricPrecision; image-rendering:optimizeQuality; fill-rule:evenodd; clip-rule:evenodd"
viewBox="0 0 953 848"
 xmlns:xlink="http://www.w3.org/1999/xlink">
 <defs>
  <style type="text/css">
   <![CDATA[
    .fil0 {fill:black}
   ]]>
  </style>
 </defs>
 <g id="Layer_x0020_1">
  <metadata id="CorelCorpID_0Corel-Layer"/>
  <path class="fil0" d="M169 730c38,1 139,32 312,32 120,0 216,-15 312,-37 -49,74 -224,86 -308,88 -102,3 -278,-24 -317,-82zm455 -582c0,54 21,28 21,74 0,8 -28,42 5,42 18,0 32,-32 32,-48 0,-23 -9,-30 -18,-46 -20,-36 2,-23 2,-49 0,-30 -42,-18 -42,26zm-339 5c0,24 26,44 26,64 0,11 -27,48 5,48 26,0 26,-37 26,-58 0,-31 -21,-27 -21,-58 0,-8 28,-42 -5,-42 -18,0 -32,32 -32,48zm153 -90c0,53 37,60 37,106 0,54 -32,33 -5,74 27,-7 42,-40 42,-74 0,-61 -37,-48 -37,-111 0,-21 36,-58 0,-58 -20,0 -37,43 -37,64zm-270 667l0 0zm275 -48c58,0 418,0 418,-85 0,-30 -24,-40 -50,-51 -14,-6 -14,-4 -24,-13 40,1 128,44 132,74 6,45 -126,83 -164,91 -169,35 -502,45 -659,-30 -82,-40 -93,-69 -7,-111 28,-14 50,-21 83,-28 -7,27 -70,27 -67,68 5,74 275,85 337,85zm-64 -328c17,-1 19,-5 37,-5 134,0 112,151 62,242 -10,18 -14,18 -14,44 31,7 40,-11 64,-64 24,-53 38,-128 11,-185 63,17 43,143 30,188 -9,30 -25,42 2,60 22,-6 20,-11 26,-32 5,-16 11,-33 11,-53 40,27 24,36 42,74l26 0c8,-35 -17,-80 -39,-98 -17,-14 -18,-6 -19,-34 88,7 73,122 106,122 42,0 -5,-90 -28,-115 -13,-14 -23,-26 -41,-33 -9,-4 -21,-5 -28,-9 -16,-10 -5,-3 -14,-23 87,7 127,74 152,144 7,21 1,14 17,25 18,-5 16,-3 21,-21 18,9 10,0 21,16 -61,41 -309,59 -367,50 -34,-5 -69,1 -103,-3 -29,-3 -62,-7 -94,-12 -33,-5 -59,-11 -87,-19 -13,-4 -31,-7 -28,-20 6,-25 8,10 28,10 20,0 28,-47 36,-64 34,-75 106,-159 202,-137 -25,17 -131,30 -175,186 -5,19 -5,20 10,31 28,-7 21,-21 36,-59 12,-31 29,-53 52,-75 1,-1 8,-8 8,-8 27,-23 66,-42 105,-43 4,16 5,16 5,37 -85,2 -138,94 -138,143 0,20 -2,2 5,16 34,-3 22,-18 51,-71 16,-29 36,-48 71,-51l-58 111c0,15 18,35 47,-16 8,-14 15,-24 23,-40 33,-65 59,-167 -36,-195 -9,-3 -12,-2 -22,-5l-18 -8zm-381 249c0,52 34,77 87,98 37,15 19,15 44,41 16,16 25,27 45,39 144,86 469,90 606,1 69,-45 34,-61 83,-81 119,-48 120,-138 -15,-186 -165,-58 -43,4 -124,-67 -73,-65 -104,-35 -129,-61 -8,-8 -18,-31 -55,-40 -18,-5 -24,-1 -40,-8 -12,-5 -18,-12 -35,-18 -54,-17 -106,-4 -137,34 -37,45 -41,26 -101,90 -19,21 -17,39 -49,46 -53,13 -180,48 -180,111z"/>
 </g>
</svg>
