<svg width="69" height="69" viewBox="0 0 69 69" fill="none" xmlns="http://www.w3.org/2000/svg">
<path d="M63.5535 1.33859C62.3373 0.660613 60.9996 0.229459 59.6169 0.0697899C58.2343 -0.0898796 56.8337 0.0250658 55.4954 0.408054C54.1572 0.791042 52.9074 1.43456 51.8175 2.30181C50.7277 3.16905 49.8191 4.24302 49.1439 5.46228L29.4738 40.9249L18.2163 29.6472C17.2389 28.6334 16.0698 27.8248 14.7772 27.2685C13.4845 26.7122 12.0942 26.4194 10.6873 26.4071C9.28051 26.3949 7.88533 26.6634 6.58321 27.1971C5.28109 27.7308 4.0981 28.519 3.10328 29.5156C2.10847 30.5122 1.32173 31.6973 0.788994 33.0018C0.256254 34.3063 -0.011825 35.704 0.000400043 37.1133C0.012625 38.5227 0.304909 39.9155 0.860197 41.2105C1.41548 42.5055 2.22266 43.6768 3.23461 44.6559L24.4252 65.8847C26.4277 67.8961 29.1295 69 31.916 69L33.3835 68.8939C35.0075 68.6663 36.5566 68.0642 37.9088 67.1349C39.2611 66.2057 40.3796 64.9747 41.1763 63.5389L67.6645 15.7742C68.3407 14.5559 68.7709 13.2161 68.9303 11.8313C69.0896 10.4465 68.9752 9.04387 68.5935 7.70339C68.2117 6.36291 67.5702 5.11088 66.7054 4.01881C65.8406 2.92673 64.7696 2.01599 63.5535 1.33859Z" fill="white"/>
</svg>
