<svg width="152" height="152" viewBox="0 0 152 152" fill="none" xmlns="http://www.w3.org/2000/svg">
<path d="M76 152C65.4867 152 55.6067 150.004 46.36 146.011C37.1133 142.019 29.07 136.605 22.23 129.77C15.39 122.93 9.97627 114.887 5.9888 105.64C2.00133 96.3933 0.00506667 86.5133 0 76C0 65.4867 1.99627 55.6067 5.9888 46.36C9.98133 37.1133 15.3951 29.07 22.23 22.23C29.07 15.39 37.1133 9.97627 46.36 5.9888C55.6067 2.00133 65.4867 0.00506667 76 0C86.5133 0 96.3933 1.99627 105.64 5.9888C114.887 9.98133 122.93 15.3951 129.77 22.23C136.61 29.07 142.026 37.1133 146.019 46.36C150.011 55.6067 152.005 65.4867 152 76C152 86.5133 150.004 96.3933 146.011 105.64C142.019 114.887 136.605 122.93 129.77 129.77C122.93 136.61 114.887 142.026 105.64 146.019C96.3933 150.011 86.5133 152.005 76 152ZM76 136.8C92.9733 136.8 107.35 130.91 119.13 119.13C130.91 107.35 136.8 92.9733 136.8 76C136.8 59.0267 130.91 44.65 119.13 32.87C107.35 21.09 92.9733 15.2 76 15.2C59.0267 15.2 44.65 21.09 32.87 32.87C21.09 44.65 15.2 59.0267 15.2 76C15.2 92.9733 21.09 107.35 32.87 119.13C44.65 130.91 59.0267 136.8 76 136.8Z" fill="white"/>
</svg>
