<svg width="26" height="22" viewBox="0 0 26 22" fill="none" xmlns="http://www.w3.org/2000/svg">
<path d="M15.1042 6.04167H13.2917V12.0833L18.4633 15.1525L19.3333 13.6904L15.1042 11.1771V6.04167ZM14.5 0C11.6158 0 8.84967 1.14576 6.81021 3.18521C4.77076 5.22467 3.625 7.99077 3.625 10.875H0L4.785 15.7446L9.66667 10.875H6.04167C6.04167 8.63171 6.93281 6.4803 8.51906 4.89406C10.1053 3.30781 12.2567 2.41667 14.5 2.41667C16.7433 2.41667 18.8947 3.30781 20.4809 4.89406C22.0672 6.4803 22.9583 8.63171 22.9583 10.875C22.9583 13.1183 22.0672 15.2697 20.4809 16.8559C18.8947 18.4422 16.7433 19.3333 14.5 19.3333C12.1679 19.3333 10.0533 18.3788 8.53083 16.8442L6.815 18.56C7.8197 19.5758 9.0168 20.381 10.3363 20.9288C11.6558 21.4765 13.0713 21.7557 14.5 21.75C17.3842 21.75 20.1503 20.6042 22.1898 18.5648C24.2292 16.5253 25.375 13.7592 25.375 10.875C25.375 7.99077 24.2292 5.22467 22.1898 3.18521C20.1503 1.14576 17.3842 0 14.5 0Z" fill="#9F9F9F"/>
</svg>
