<?xml version="1.0" encoding="UTF-8"?>
<!DOCTYPE svg PUBLIC "-//W3C//DTD SVG 1.1//EN" "http://www.w3.org/Graphics/SVG/1.1/DTD/svg11.dtd">
<!-- Creator: CorelDRAW X5 -->
<svg xmlns="http://www.w3.org/2000/svg" xml:space="preserve" width="37.5607mm" height="37.9301mm" style="shape-rendering:geometricPrecision; text-rendering:geometricPrecision; image-rendering:optimizeQuality; fill-rule:evenodd; clip-rule:evenodd"
viewBox="0 0 773 780"
 xmlns:xlink="http://www.w3.org/1999/xlink">
 <defs>
  <style type="text/css">
   <![CDATA[
    .fil0 {fill:#2B2A29}
   ]]>
  </style>
 </defs>
 <g id="Layer_x0020_1">
  <metadata id="CorelCorpID_0Corel-Layer"/>
  <path class="fil0" d="M303 38c26,-42 114,-58 162,-6 34,59 69,118 103,176 24,-14 48,-28 72,-43 -15,59 -31,118 -46,176 -58,-16 -116,-32 -174,-48 23,-13 47,-27 70,-40 -27,-47 -54,-95 -81,-142 -15,-28 -32,-25 -45,1 -43,75 -86,150 -129,225 -27,-15 -53,-29 -80,-44 50,-85 99,-171 149,-256zm-211 657c-49,0 -108,-68 -88,-136 33,-60 44,-82 77,-142 -24,-13 -49,-26 -73,-39 58,-17 117,-34 175,-51 16,58 32,116 49,174 -24,-13 -47,-26 -71,-39 -27,48 -32,58 -59,105 -17,27 -5,40 24,38 86,-2 154,1 241,-1 1,30 0,60 0,91 -99,2 -175,-1 -274,0zm673 -140c23,43 -8,128 -78,142 -68,0 -115,-1 -183,-1 0,28 0,56 0,83 -43,-43 -85,-87 -128,-130 43,-42 87,-84 130,-125 0,27 -1,54 -1,81 55,1 88,2 142,3 32,2 38,-15 22,-39 -43,-75 -68,-119 -111,-195 26,-16 52,-31 78,-47 48,86 79,142 127,228z"/>
 </g>
</svg>
