<svg width="18" height="18" viewBox="0 0 18 18" fill="none" xmlns="http://www.w3.org/2000/svg">
<path d="M12.7037 10.8686H11.9008L11.6163 10.6018C12.6467 9.43985 13.213 7.95647 13.2119 6.42233C13.2119 5.15211 12.8244 3.91042 12.0986 2.85428C11.3727 1.79813 10.341 0.974964 9.13392 0.488873C7.92684 0.00278269 6.59861 -0.124401 5.31718 0.123406C4.03576 0.371213 2.85869 0.98288 1.93484 1.88106C1.01098 2.77924 0.381826 3.92359 0.126934 5.16939C-0.127957 6.4152 0.00286225 7.70652 0.50285 8.88005C1.00284 10.0536 1.84954 11.0566 2.93588 11.7623C4.02222 12.468 5.29941 12.8447 6.60594 12.8447C8.24218 12.8447 9.7463 12.2617 10.9049 11.2934L11.1793 11.5701V12.3506L16.2608 17.281L17.7751 15.8088L12.7037 10.8686ZM6.60594 10.8686C4.07536 10.8686 2.0326 8.88257 2.0326 6.42233C2.0326 3.96208 4.07536 1.9761 6.60594 1.9761C9.13652 1.9761 11.1793 3.96208 11.1793 6.42233C11.1793 8.88257 9.13652 10.8686 6.60594 10.8686Z" fill="#870081" fill-opacity="0.65"/>
</svg>
