<?xml version="1.0" encoding="UTF-8"?>
<!DOCTYPE svg PUBLIC "-//W3C//DTD SVG 1.1//EN" "http://www.w3.org/Graphics/SVG/1.1/DTD/svg11.dtd">
<!-- Creator: CorelDRAW X5 -->
<svg xmlns="http://www.w3.org/2000/svg" xml:space="preserve" width="44.45mm" height="33.7004mm" style="shape-rendering:geometricPrecision; text-rendering:geometricPrecision; image-rendering:optimizeQuality; fill-rule:evenodd; clip-rule:evenodd"
viewBox="0 0 46470 35232"
 xmlns:xlink="http://www.w3.org/1999/xlink">
 <defs>
  <style type="text/css">
   <![CDATA[
    .fil0 {fill:#2B2A29}
   ]]>
  </style>
 </defs>
 <g id="Layer_x0020_1">
  <metadata id="CorelCorpID_0Corel-Layer"/>
  <path class="fil0" d="M36094 10383l2559 20469c-9151,-507 -17680,-5129 -27453,-4633l2559 -15836 4749 0 0 1406c-215,170 -353,434 -353,729 0,513 416,929 929,929 513,0 929,-416 929,-929 0,-356 -200,-665 -494,-821l0 -1314 10012 0 0 1388c-229,169 -377,441 -377,747 0,513 416,929 929,929 513,0 929,-416 929,-929 0,-346 -189,-648 -470,-808l0 -1327 5552 0zm-10294 -10261c4789,935 4609,9130 4685,12591l-398 0 -398 0c-63,-2917 126,-10998 -4040,-11809 -6045,-1177 -6469,7957 -6189,11711l-395 51 -395 51c-340,-4564 502,-13889 7131,-12595zm-25800 30645c2314,-1740 5961,-3008 11133,-3734 6702,-586 15599,3392 22543,4155 4323,468 8609,242 12793,-1873 -3904,3362 -9585,4886 -14665,4185 -12771,-1764 -17922,-8013 -31805,-2733zm17856 -65c6926,1086 14614,7316 25814,1370 -8934,6868 -18783,705 -25814,-1370z"/>
 </g>
</svg>
