<svg width="26" height="26" viewBox="0 0 26 26" fill="none" xmlns="http://www.w3.org/2000/svg">
<path d="M12.9117 2.78956e-07C13.1556 -0.000160645 13.3948 0.0693066 13.6021 0.20054C13.8094 0.331772 13.9765 0.51953 14.0845 0.742562L17.3642 7.51977L24.7008 8.60697C24.9421 8.64269 25.1688 8.74651 25.3553 8.90669C25.5417 9.06686 25.6805 9.27701 25.7559 9.51338C25.8313 9.74975 25.8404 10.0029 25.782 10.2442C25.7237 10.4856 25.6003 10.7055 25.4258 10.8791L20.1176 16.1552L21.3706 23.6021C21.4112 23.847 21.384 24.0985 21.292 24.3285C21.2 24.5584 21.0468 24.7576 20.8498 24.9037C20.6527 25.0497 20.4196 25.1368 20.1766 25.1551C19.9337 25.1734 19.6905 25.1222 19.4746 25.0073L12.9117 21.4899L6.34874 25.0073C6.13297 25.1228 5.88983 25.1745 5.64677 25.1565C5.40371 25.1386 5.17041 25.0517 4.97321 24.9058C4.77602 24.7598 4.62278 24.5606 4.5308 24.3305C4.43883 24.1005 4.41178 23.8488 4.45271 23.6039L5.70743 16.1534L0.395761 10.8791C0.220738 10.7055 0.0968913 10.4855 0.0382548 10.2439C-0.0203818 10.0023 -0.0114636 9.74882 0.0639988 9.51213C0.139461 9.27543 0.278451 9.06502 0.465217 8.90472C0.651984 8.74443 0.87906 8.64066 1.12071 8.60519L8.45737 7.51977L11.7388 0.742562C11.8468 0.51953 12.0139 0.331772 12.2212 0.20054C12.4285 0.0693066 12.6677 -0.000160645 12.9117 2.78956e-07Z" fill="#13B436"/>
</svg>
